<svg width="216" height="115" viewBox="0 0 216 115" fill="none" xmlns="http://www.w3.org/2000/svg">
<path d="M51.5 2C65.5381 2 78.1569 4.21371 87.1924 7.72266C91.7163 9.47957 95.2413 11.5222 97.6006 13.6885C99.9582 15.8533 101 17.9885 101 20C101 22.0115 99.9582 24.1467 97.6006 26.3115C95.2413 28.4778 91.7163 30.5204 87.1924 32.2773C78.1569 35.7863 65.5381 38 51.5 38C37.4619 38 24.8431 35.7863 15.8076 32.2773C11.2837 30.5204 7.75874 28.4778 5.39941 26.3115C3.04176 24.1467 2 22.0115 2 20C2 17.9885 3.04176 15.8533 5.39941 13.6885C7.75874 11.5222 11.2837 9.47957 15.8076 7.72266C24.8431 4.21371 37.4619 2 51.5 2Z" fill="#056B00" stroke="black" stroke-width="4"/>
<path d="M99 45H103C103 56.0457 79.9427 65 51.5 65C23.0573 65 0 56.0457 0 45H4C4 46.2618 4.64234 47.9019 6.75195 49.8389C8.86474 51.7787 12.1437 53.7088 16.5322 55.4131C25.2836 58.8117 37.6452 61 51.5 61C65.3548 61 77.7164 58.8117 86.4678 55.4131C90.8563 53.7088 94.1353 51.7787 96.248 49.8389C98.3577 47.9019 99 46.2618 99 45Z" fill="black"/>
<path d="M99 70H103C103 81.0457 79.9427 90 51.5 90C23.0573 90 0 81.0457 0 70H4C4 71.2618 4.64234 72.9019 6.75195 74.8389C8.86474 76.7787 12.1437 78.7088 16.5322 80.4131C25.2836 83.8117 37.6452 86 51.5 86C65.3548 86 77.7164 83.8117 86.4678 80.4131C90.8563 78.7088 94.1353 76.7787 96.248 74.8389C98.3577 72.9019 99 71.2618 99 70Z" fill="black"/>
<path d="M99 95H103C103 106.046 79.9427 115 51.5 115C23.0573 115 0 106.046 0 95H4C4 96.2618 4.64234 97.9019 6.75195 99.8389C8.86474 101.779 12.1437 103.709 16.5322 105.413C25.2836 108.812 37.6452 111 51.5 111C65.3548 111 77.7164 108.812 86.4678 105.413C90.8563 103.709 94.1353 101.779 96.248 99.8389C98.3577 97.9019 99 96.2618 99 95Z" fill="black"/>
<line x1="2" y1="20" x2="2" y2="95" stroke="black" stroke-width="4"/>
<line x1="101" y1="20" x2="101" y2="95" stroke="black" stroke-width="4"/>
<line x1="24.8023" y1="44.2983" x2="7.96356" y2="55.0898" stroke="black" stroke-width="4"/>
<line x1="19.3596" y1="69.1655" x2="8.56806" y2="52.3267" stroke="black" stroke-width="4"/>
<line x1="89.2454" y1="96.1136" x2="94.4218" y2="76.7951" stroke="black" stroke-width="4"/>
<line x1="76.5176" y1="74.0681" x2="95.8362" y2="79.2445" stroke="black" stroke-width="4"/>
<path d="M151.264 91.688C151.264 92.6 150.952 93.392 150.328 94.064C149.704 94.688 148.936 95 148.024 95H137.944C135.736 95 133.84 94.232 132.256 92.696C130.72 91.112 129.952 89.192 129.952 86.936V49.64C129.952 48.68 130.264 47.888 130.888 47.264C131.512 46.64 132.28 46.328 133.192 46.328H135.208C136.12 46.328 136.888 46.64 137.512 47.264C138.184 47.888 138.52 48.68 138.52 49.64V56.84C138.52 57.416 138.832 57.704 139.456 57.704H148.024C148.936 57.704 149.704 58.04 150.328 58.712C150.952 59.336 151.264 60.128 151.264 61.088V63.032C151.264 63.848 150.952 64.616 150.328 65.336C149.608 65.96 148.84 66.272 148.024 66.272H139.456C138.832 66.272 138.52 66.608 138.52 67.28V85.568C138.52 86.192 138.832 86.504 139.456 86.504H148.024C148.936 86.504 149.704 86.816 150.328 87.44C150.952 88.064 151.264 88.856 151.264 89.816V91.688ZM183.155 73.616C183.155 75.056 182.795 76.4 182.075 77.648C181.355 78.848 180.395 79.832 179.195 80.6C177.995 81.32 176.651 81.68 175.163 81.68H166.667C166.427 81.68 166.187 81.776 165.947 81.968C165.755 82.112 165.659 82.304 165.659 82.544V85.568C165.659 85.808 165.755 86.024 165.947 86.216C166.187 86.408 166.427 86.504 166.667 86.504H175.163C176.075 86.504 176.843 86.816 177.467 87.44C178.139 88.064 178.475 88.856 178.475 89.816V91.688C178.475 92.6 178.139 93.392 177.467 94.064C176.843 94.688 176.075 95 175.163 95H165.155C162.947 95 161.051 94.232 159.467 92.696C157.883 91.112 157.091 89.192 157.091 86.936V65.768C157.091 64.28 157.451 62.936 158.171 61.736C158.939 60.536 159.923 59.576 161.123 58.856C162.323 58.088 163.667 57.704 165.155 57.704H175.163C176.651 57.704 177.995 58.088 179.195 58.856C180.395 59.576 181.355 60.536 182.075 61.736C182.795 62.936 183.155 64.28 183.155 65.768V73.616ZM174.659 72.176V67.28C174.659 66.992 174.539 66.752 174.299 66.56C174.107 66.368 173.891 66.272 173.651 66.272H166.667C166.427 66.272 166.187 66.368 165.947 66.56C165.755 66.752 165.659 66.992 165.659 67.28V72.176C165.659 72.368 165.755 72.56 165.947 72.752C166.187 72.944 166.427 73.04 166.667 73.04H173.651C173.891 73.04 174.107 72.944 174.299 72.752C174.539 72.56 174.659 72.368 174.659 72.176ZM215.077 86.936C215.077 89.192 214.285 91.112 212.701 92.696C211.165 94.232 209.293 95 207.085 95H197.077C194.869 95 192.973 94.232 191.389 92.696C189.805 91.112 189.013 89.192 189.013 86.936V65.768C189.013 64.28 189.373 62.936 190.093 61.736C190.861 60.488 191.845 59.504 193.045 58.784C194.245 58.064 195.589 57.704 197.077 57.704H205.573C206.245 57.704 206.581 57.416 206.581 56.84V49.64C206.581 48.68 206.893 47.888 207.517 47.264C208.141 46.64 208.909 46.328 209.821 46.328H211.837C212.749 46.328 213.517 46.64 214.141 47.264C214.765 47.888 215.077 48.68 215.077 49.64V86.936ZM206.581 85.568V67.28C206.581 66.608 206.245 66.272 205.573 66.272H198.589C198.349 66.272 198.109 66.368 197.869 66.56C197.677 66.752 197.581 66.992 197.581 67.28V85.568C197.581 85.808 197.677 86.024 197.869 86.216C198.109 86.408 198.349 86.504 198.589 86.504H205.573C206.245 86.504 206.581 86.192 206.581 85.568Z" fill="#056B00"/>
</svg>
